<svg xmlns="http://www.w3.org/2000/svg" viewBox="0 0 160.56 148.74"><defs><style>.a{fill:#3d3d3d;}.b{fill:#fff;}</style></defs><path class="a" d="M138.82,103a90,90,0,0,0,4.57-28.58c0-19.39-5.92-37.64-16.65-51.37C115.9,9.12,101.42,1.48,86,1.48a46.51,46.51,0,0,0-13.54,2,46.46,46.46,0,0,0-13.54-2A47.69,47.69,0,0,0,32.35,9.69l-.44.23,0,0A61,61,0,0,0,18.12,23C7.39,36.73,1.48,55,1.48,74.37S7.39,112,18.12,125.74A61.06,61.06,0,0,0,32,138.85l-.13.14c.68.4,1.39.77,2.1,1.13a47.47,47.47,0,0,0,24.88,7.14,46.13,46.13,0,0,0,13.54-2,46.18,46.18,0,0,0,13.54,2c15.45,0,29.93-7.65,40.77-21.52,1.47-1.88,2.83-3.84,4.12-5.88l.27,0,12.5-.16c3.41-.05,6.88-.25,10.28-.13,1.18,0,6.28-.4,6.43-.38C149.68,117.56,143.43,110.63,138.82,103ZM22.67,115c-5-2.68-8.58-10-8.58-18.72s3.59-16,8.58-18.73a7,7,0,0,1,1.45-.17h.07A44.25,44.25,0,0,0,32.79,102c.4,1.24.83,2.47,1.28,3.68-2,5.62-5.77,9.5-9.95,9.5A6.47,6.47,0,0,1,22.67,115Zm1.45-81.34c4.18,0,7.92,3.87,10,9.49-.59,1.59-1.13,3.22-1.63,4.86A44.19,44.19,0,0,0,24.23,71.4h-.11a6.47,6.47,0,0,1-1.45-.18c-5-2.68-8.58-10-8.58-18.72s3.59-16,8.58-18.73A7,7,0,0,1,24.12,33.61ZM49.36,138.49c-5.71-2.86-9.8-10.44-9.8-19.37,0-.56,0-1.12.06-1.68a71.69,71.69,0,0,0,5.59,8.3,62,62,0,0,0,11.68,11.53,10.1,10.1,0,0,1-5.24,1.52A9.78,9.78,0,0,1,49.36,138.49ZM39.56,29.61c0-8.93,4.09-16.5,9.8-19.36a9.78,9.78,0,0,1,2.29-.3,10,10,0,0,1,5.24,1.52A62,62,0,0,0,45.21,23a70.84,70.84,0,0,0-5.59,8.3C39.59,30.74,39.56,30.18,39.56,29.61Zm42.35,90A17.46,17.46,0,0,1,74.85,113a25.13,25.13,0,0,0,14.28-6.5,24.65,24.65,0,0,1,3.15,10.63,12,12,0,0,1-7.59,2.85A11.22,11.22,0,0,1,81.91,119.56Zm-16.64-.44c0,.72,0,1.42-.08,2.11,0-.69-.08-1.39-.08-2.11s0-1.41.08-2.11C65.24,117.71,65.27,118.41,65.27,119.12Zm0-89.51c0,.71,0,1.42-.08,2.11,0-.69-.08-1.4-.08-2.11s0-1.42.08-2.11C65.24,28.19,65.27,28.9,65.27,29.61Zm19.42-.8a12,12,0,0,1,7.59,2.85,26.58,26.58,0,0,1-1.13,6,19,19,0,0,0-6.08-1H76.22q-.85-.14-1.74-.21a17.65,17.65,0,0,1,7.43-7.25A11.22,11.22,0,0,1,84.69,28.81ZM51.2,33.61a8.42,8.42,0,0,1,5.88,2.75H53.44a23.3,23.3,0,0,0-10,2.28C45.53,35.54,48.25,33.61,51.2,33.61Zm2.24,79.47h2.88a8,8,0,0,1-5.12,2c-2.61,0-5-1.52-7-4A23.14,23.14,0,0,0,53.44,113.08ZM98,41.2c.09-.27.18-.54.28-.8.15.41.3.82.43,1.25ZM96.57,98.72q0-.94.06-1.86A41.89,41.89,0,0,0,99,91.6a28.74,28.74,0,0,1,.9,7.12,28,28,0,0,1-1.67,9.62A28,28,0,0,1,96.57,98.72Zm15.21-69.91c8.39,0,15.21,9.51,15.21,21.2,0,7.4-2.74,13.92-6.88,17.72-1.52-2.52-3.13-5-4.87-7.42A82.83,82.83,0,0,0,105.07,31,11.74,11.74,0,0,1,111.78,28.81Zm.2,73.43c2.92,5.94,5.51,10.7,8.58,13.77a12.49,12.49,0,0,1-8.78,3.92,11.82,11.82,0,0,1-6.71-2.2A78.65,78.65,0,0,0,112,102.24Z"/><path class="a" d="M86,148.74a48.16,48.16,0,0,1-13.54-2,48.11,48.11,0,0,1-13.54,2,48.61,48.61,0,0,1-25.59-7.33c-.72-.36-1.43-.74-2.13-1.13l-1.62-.93.24-.26A62.78,62.78,0,0,1,17,126.65C6,112.65,0,94.09,0,74.37S6,36.08,17,22.09A62.58,62.58,0,0,1,29.67,9.73l-.12-.12,1.62-1,.28-.15.14-.07A49.47,49.47,0,0,1,58.89,0,47.75,47.75,0,0,1,72.43,2,47.8,47.8,0,0,1,86,0c15.91,0,30.81,7.84,41.93,22.09,10.94,14,17,32.56,17,52.28a91.36,91.36,0,0,1-4.42,28.4c5.58,9.07,11.81,13.68,20.12,14.94l-.22,1.47v1.47l-1.37.09c-2.23.17-4.29.31-5.1.29-2.23-.08-4.54,0-6.78,0l-3.43.08-12,.15c-1.22,1.89-2.48,3.69-3.78,5.34C116.78,140.89,101.88,148.74,86,148.74Zm-13.54-5.06.43.13a45,45,0,0,0,13.11,2c15,0,29.05-7.44,39.6-21,1.38-1.77,2.74-3.71,4-5.76l.4-.62,1.11-.09,12.5-.16c1.12,0,2.25,0,3.39-.08,1.58-.05,3.19-.09,4.82-.09-7.08-3.53-11.42-9.57-14.27-14.32l-.35-.58.22-.65a88.27,88.27,0,0,0,4.49-28.11c0-19.06-5.8-37-16.34-50.46S101,3,86,3a45,45,0,0,0-13.11,2l-.43.13L72,4.93A44.85,44.85,0,0,0,58.89,3a46,46,0,0,0-25.73,8l-.4.26A59.18,59.18,0,0,0,19.29,23.91C8.76,37.38,3,55.3,3,74.37s5.8,37,16.33,50.46a59.26,59.26,0,0,0,13.57,12.79l1.44,1h0l.39.2.1.06a45.82,45.82,0,0,0,24.11,6.92,44.85,44.85,0,0,0,13.11-2Zm-20.78-3.41a11,11,0,0,1-2.64-.35l-.31-.11c-6.35-3.18-10.62-11.49-10.62-20.69,0-.59,0-1.18.06-1.77l.29-4.93,2.47,4.28a70.8,70.8,0,0,0,5.47,8.13,60.66,60.66,0,0,0,11.41,11.25l1.76,1.32-1.88,1.13A11.49,11.49,0,0,1,51.65,140.27Zm-1.77-3.18a7.56,7.56,0,0,0,4.19-.15,64.84,64.84,0,0,1-10-10.29c-.94-1.21-1.86-2.46-2.74-3.76C42.22,129.34,45.43,134.78,49.88,137.09Zm61.9-15.68a13.16,13.16,0,0,1-7.54-2.46l-1.14-.78.7-1.19a77.79,77.79,0,0,0,6.78-15.2l1.12-3.47,1.61,3.28c3,6.15,5.46,10.53,8.29,13.38l1.05,1-1.05,1A13.89,13.89,0,0,1,111.78,121.41Zm-4.71-4.19a10,10,0,0,0,11.38-1.3,50.28,50.28,0,0,1-6.22-9.89A80.19,80.19,0,0,1,107.07,117.22ZM84.7,121.41a12.55,12.55,0,0,1-3.16-.42l-.27-.1a18.78,18.78,0,0,1-7.67-7.16l-1.26-2,2.37-.22a23.69,23.69,0,0,0,13.44-6.14l1.35-1.19.91,1.55A26.15,26.15,0,0,1,93.76,117l0,.77-.6.49A13.53,13.53,0,0,1,84.7,121.41Zm-2.28-3.25a9.69,9.69,0,0,0,2.28.29,10.4,10.4,0,0,0,6-2.06,23.74,23.74,0,0,0-2.06-7.63,26.79,26.79,0,0,1-11.23,5.3A15,15,0,0,0,82.42,118.16Zm-15.75,3.19h-3c-.06-.78-.09-1.5-.09-2.22s0-1.44.09-2.21h3c0,.76.08,1.5.08,2.22S66.72,120.59,66.67,121.35ZM51.2,116.61c-3,0-5.84-1.63-8.16-4.57l-3.62-4.61,5.37,2.33a21.55,21.55,0,0,0,8.65,1.84h7l-3.13,2.61A9.51,9.51,0,0,1,51.2,116.61Zm-27.08,0a8.24,8.24,0,0,1-1.76-.21l-.21,0-.18-.1c-5.6-3-9.36-11.06-9.36-20s3.76-17,9.36-20l.18-.1.21,0a8.24,8.24,0,0,1,1.76-.21h.23l1.35.06,0,1.34A42.81,42.81,0,0,0,34,101.05l.16.2.08.25c.39,1.2.81,2.42,1.26,3.61l.19.51-.19.51C33.13,112.59,28.78,116.61,24.12,116.61Zm-.93-3.06a4.69,4.69,0,0,0,.93.1c3.27,0,6.45-3.06,8.37-8-.36-1-.71-2-1-3a45.54,45.54,0,0,1-8.63-23.53c-4.36,2.74-7.26,9.51-7.26,17.11C15.57,104,18.63,111,23.19,113.55Zm75.05-.92-1.39-3.78a29.28,29.28,0,0,1-1.76-10.13c0-.66,0-1.31.07-2l0-.32.15-.29a39.54,39.54,0,0,0,2.29-5.07l1.65-4.39,1.17,4.54a30.22,30.22,0,0,1,1,7.49,29.56,29.56,0,0,1-1.76,10.13Zm-.15-15.36c0,.48,0,1,0,1.45a27.38,27.38,0,0,0,.2,3.28,27.38,27.38,0,0,0,.19-3.28c0-.65,0-1.31-.07-2Zm-74-24.38a8.31,8.31,0,0,1-1.76-.21l-.21,0-.18-.1c-5.6-3-9.36-11.07-9.36-20s3.76-17,9.36-20l.18-.1.2,0a8.33,8.33,0,0,1,1.77-.21c4.66,0,9,4,11.34,10.47l.19.51-.19.51c-.55,1.45-1.07,3-1.61,4.77l-.07.25-.16.2a43,43,0,0,0-7.91,22.65l-.09,1.35-1.35,0Zm-.93-37.7c-4.56,2.59-7.62,9.51-7.62,17.32,0,7.63,2.92,14.42,7.32,17.14A45.58,45.58,0,0,1,31.1,47.28c.46-1.51.92-2.88,1.39-4.17-1.92-5-5.1-8-8.37-8A4.69,4.69,0,0,0,23.19,35.19ZM119.79,70l-.94-1.54c-1.62-2.67-3.19-5.07-4.81-7.32l-.21-.29,0-.35a81.27,81.27,0,0,0-10-28.79l-.7-1.18,1.14-.78a13.16,13.16,0,0,1,7.54-2.46c9.2,0,16.69,10.17,16.69,22.68,0,7.55-2.75,14.58-7.36,18.81Zm-3.14-10.3c1.26,1.76,2.48,3.61,3.73,5.6,3.24-3.75,5.13-9.33,5.13-15.33,0-10.87-6.16-19.72-13.73-19.72a9.83,9.83,0,0,0-4.71,1.23A84.22,84.22,0,0,1,116.65,59.74ZM101.26,45l-5.08-3.18.37-1.11.3-.86,1.39-3.76,1.39,3.77q.24.64.45,1.32Zm-62-2.77,3-4.44c2.45-3.67,5.63-5.69,9-5.69a9.85,9.85,0,0,1,6.92,3.18l2.54,2.53H53.44A21.73,21.73,0,0,0,44.09,40Zm52.84-2.71-1.44-.49a17.19,17.19,0,0,0-5.6-.94L76,38.1c-.54-.09-1.09-.15-1.64-.2L72,37.72l1.17-2a19,19,0,0,1,8.07-7.84l.27-.1a12.55,12.55,0,0,1,3.16-.42,13.53,13.53,0,0,1,8.51,3.18l.6.48,0,.78a28,28,0,0,1-1.2,6.33Zm-15-4.39h8a20.24,20.24,0,0,1,5.06.65,24.92,24.92,0,0,0,.61-3.47,10.39,10.39,0,0,0-6-2.05,9.2,9.2,0,0,0-2.28.29A15.13,15.13,0,0,0,77.09,35.16ZM38.43,36.32l-.29-4.94c0-.58-.06-1.17-.06-1.77,0-9.19,4.27-17.51,10.62-20.68L49,8.81a11,11,0,0,1,2.64-.34,11.5,11.5,0,0,1,6,1.73l1.88,1.14-1.76,1.31A60.72,60.72,0,0,0,46.37,23.91,70.8,70.8,0,0,0,40.9,32ZM49.88,11.65C45.43,14,42.22,19.4,41.3,25.84c.88-1.29,1.8-2.54,2.74-3.75a64,64,0,0,1,10-10.29A7.57,7.57,0,0,0,49.88,11.65ZM66.67,31.83h-3c-.06-.78-.09-1.5-.09-2.22s0-1.44.09-2.22h3c0,.75.08,1.5.08,2.22S66.72,31.08,66.67,31.83Z"/><path class="a" d="M86,2.41c-31,0-56.23,32.22-56.23,72s25.18,72,56.23,72,56.24-32.22,56.24-72S117,2.41,86,2.41Zm25.81,25.47c9,0,16.39,9.91,16.39,22.13s-7.34,22.14-16.39,22.14S95.39,62.24,95.39,50,102.73,27.88,111.78,27.88ZM51.2,32.68c7,0,12.73,8.88,12.73,19.83S58.23,72.34,51.2,72.34,38.47,63.46,38.47,52.51,44.17,32.68,51.2,32.68Zm0,83.38c-7,0-12.73-8.88-12.73-19.83S44.17,76.4,51.2,76.4s12.73,8.88,12.73,19.83S58.23,116.06,51.2,116.06Zm27.53,23.66c-8.17,0-14.8-9.22-14.8-20.6s6.63-20.59,14.8-20.59,14.81,9.22,14.81,20.59S86.91,139.72,78.73,139.72Zm0-89.52c-8.17,0-14.8-9.22-14.8-20.59S70.56,9,78.73,9s14.81,9.22,14.81,20.59S86.91,50.2,78.73,50.2Zm33.05,70.66c-9,0-16.39-9.91-16.39-22.14s7.34-22.13,16.39-22.13,16.39,9.91,16.39,22.13S120.83,120.86,111.78,120.86Z"/><path class="a" d="M86,147.26c-15.44,0-29.92-7.65-40.76-21.52s-16.65-32-16.65-51.37S34.47,36.73,45.21,23C56.05,9.12,70.53,1.48,86,1.48S115.9,9.12,126.74,23c10.73,13.73,16.65,32,16.65,51.37s-5.92,37.63-16.65,51.37S101.42,147.26,86,147.26ZM86,3.34c-30.35,0-55,31.86-55,71s24.7,71,55.05,71S141,113.53,141,74.37,116.33,3.34,86,3.34ZM78.73,140.65c-9,0-16-9.46-16-21.53s7-21.52,16-21.52,16,9.46,16,21.52S87.69,140.65,78.73,140.65Zm0-41.19c-7.51,0-13.62,8.82-13.62,19.66s6.11,19.67,13.62,19.67S92.36,130,92.36,119.12,86.25,99.46,78.73,99.46Zm33.05,22.33c-9.69,0-17.57-10.35-17.57-23.07s7.88-23.06,17.57-23.06S129.35,86,129.35,98.72,121.47,121.79,111.78,121.79Zm0-44.27c-8.39,0-15.21,9.51-15.21,21.2s6.82,21.21,15.21,21.21S127,110.42,127,98.72,120.17,77.52,111.78,77.52ZM51.2,117c-7.8,0-13.91-9.12-13.91-20.76S43.4,75.47,51.2,75.47s13.91,9.12,13.91,20.76S59,117,51.2,117Zm0-39.66c-6.26,0-11.55,8.65-11.55,18.9s5.29,18.9,11.55,18.9,11.55-8.66,11.55-18.9S57.46,77.33,51.2,77.33Zm0-4.06c-7.8,0-13.91-9.12-13.91-20.76S43.4,31.75,51.2,31.75s13.91,9.12,13.91,20.76S59,73.27,51.2,73.27Zm0-39.66c-6.26,0-11.55,8.65-11.55,18.9s5.29,18.9,11.55,18.9,11.55-8.66,11.55-18.9S57.46,33.61,51.2,33.61Zm60.58,39.47c-9.69,0-17.57-10.35-17.57-23.07S102.09,27,111.78,27,129.35,37.29,129.35,50,121.47,73.08,111.78,73.08Zm0-44.27c-8.39,0-15.21,9.51-15.21,21.2s6.82,21.21,15.21,21.21S127,61.7,127,50,120.17,28.81,111.78,28.81Zm-33,22.32c-9,0-16-9.45-16-21.52s7-21.52,16-21.52,16,9.45,16,21.52S87.69,51.13,78.73,51.13Zm0-41.18c-7.51,0-13.62,8.82-13.62,19.66s6.11,19.66,13.62,19.66,13.63-8.82,13.63-19.66S86.25,10,78.73,10Z"/><path class="b" d="M83,145.31a48.21,48.21,0,0,0,14-2.5,50.19,50.19,0,0,0,12-6.17,56.15,56.15,0,0,0,9.58-8.44,66.42,66.42,0,0,0,7.36-9.74A77.67,77.67,0,0,0,131.42,108a81.59,81.59,0,0,0,3.7-11,85.31,85.31,0,0,0,2.19-11.23,92.53,92.53,0,0,0,0-22.72,85.14,85.14,0,0,0-2.19-11.24,80.59,80.59,0,0,0-3.71-11A77.6,77.6,0,0,0,126,30.28a67.76,67.76,0,0,0-7.36-9.75A56.61,56.61,0,0,0,109,12.1,50.32,50.32,0,0,0,97,5.92a48.56,48.56,0,0,0-6.86-1.76A46.22,46.22,0,0,0,83,3.43a45.92,45.92,0,0,1,14.28,2,52.35,52.35,0,0,1,12.53,5.94,57.49,57.49,0,0,1,10.08,8.4,66.92,66.92,0,0,1,7.76,9.82,76.45,76.45,0,0,1,9.69,21.78,87.39,87.39,0,0,1,0,45.92,76.73,76.73,0,0,1-9.69,21.78,66.39,66.39,0,0,1-7.77,9.81,57.54,57.54,0,0,1-10.07,8.41,52.32,52.32,0,0,1-12.53,5.93A45.54,45.54,0,0,1,83,145.31Z"/><path class="a" d="M115,60a84.1,84.1,0,0,0-7.91-9.45,7.15,7.15,0,0,0-.18-2c-.66-2.22-8-7-13.15-9.77a18.36,18.36,0,0,0-8.7-2.13H76.22a21.83,21.83,0,0,0-3.53-.28H53.44c-16.2,0-29.32,17.17-29.32,38.36s13.12,38.36,29.32,38.36H72.69c14.42,0,26.4-13.62,28.86-31.55,12.78,22.9,15.86,39.8,29.58,38.31l12.5-.16c3.41-.05,6.88-.25,10.28-.13,1.18,0,6.28-.4,6.43-.38-17-2.56-22.8-18.63-28.54-29.69C126.64,79.55,121.78,69.33,115,60Z"/><path class="b" d="M63.44,109.67a21.11,21.11,0,0,1-2.23,1h3c.6-.31,1.19-.64,1.78-1Z"/><path class="b" d="M77.86,93.22c-.2.45-.4.9-.61,1.35H78.8c.21-.45.4-.9.59-1.35Z"/><path class="b" d="M76.69,95.71c-.22.44-.46.88-.7,1.3h1.57c.24-.43.47-.86.69-1.3Z"/><path class="b" d="M75.31,98.16c-.26.42-.53.85-.8,1.26h1.63c.27-.41.52-.84.77-1.26Z"/><path class="b" d="M80.36,85.55c-.11.49-.23,1-.36,1.45h1.47c.13-.48.25-1,.35-1.45Z"/><path class="b" d="M80.87,82.94q-.12.74-.27,1.47h1.47c.09-.49.18-1,.26-1.47Z"/><path class="b" d="M73.72,100.56c-.19.27-.38.53-.58.79l-.33.43H74.5c.3-.4.6-.8.88-1.22Z"/><path class="b" d="M81.25,80.3c-.06.5-.13,1-.2,1.49h1.46c.07-.49.13-1,.19-1.49Z"/><path class="b" d="M79.68,88.14c-.14.47-.28,1-.43,1.41h1.5c.15-.46.28-.94.42-1.41Z"/><path class="b" d="M78.86,90.7c-.16.46-.34.92-.52,1.38h1.51c.17-.46.35-.92.51-1.38Z"/><path class="b" d="M71.86,102.92c-.34.4-.69.79-1,1.16H72.6c.34-.37.67-.76,1-1.16Z"/><path class="b" d="M73.14,48.08l.21.29H75c-.21-.29-.42-.59-.64-.87l-.09-.13H72.58C72.77,47.61,73,47.84,73.14,48.08Z"/><path class="b" d="M69.67,105.23c-.41.38-.82.75-1.24,1.11h1.94c.39-.36.78-.73,1.16-1.11Z"/><path class="b" d="M70.76,45.3c.29.3.58.61.86.93h1.75l-.81-.93Z"/><path class="b" d="M68.65,43.29c.33.28.65.57,1,.87h1.86q-.45-.45-.9-.87Z"/><path class="b" d="M74.18,49.51c.24.35.47.7.7,1.06h1.61c-.22-.36-.45-.71-.68-1.06Z"/><path class="b" d="M75.58,51.71l.64,1.13h1.57l-.61-1.13Z"/><path class="b" d="M76.82,54c.2.39.4.79.59,1.2h1.53q-.27-.61-.57-1.2Z"/><path class="b" d="M58,37.61a22.08,22.08,0,0,1,2.86.7H63.2c-.56-.26-1.6-.49-2.17-.7Z"/><path class="b" d="M77.91,56.33c.18.42.35.84.52,1.27h1.51c-.16-.43-.33-.85-.5-1.27Z"/><path class="b" d="M78.86,58.74c.16.45.31.89.46,1.35h1.49c-.14-.46-.29-.9-.45-1.35Z"/><path class="b" d="M81.25,69.15c.06.55.11,1.11.15,1.66h1.46c0-.56-.1-1.11-.16-1.66Z"/><path class="b" d="M80.86,66.43c.09.52.17,1,.24,1.58h1.45c-.07-.53-.15-1.06-.23-1.58Z"/><path class="b" d="M79.66,61.23c.14.47.27.94.39,1.42h1.48c-.12-.48-.25-.95-.38-1.42Z"/><path class="b" d="M80.34,63.79c.11.5.22,1,.31,1.5h1.47c-.1-.5-.2-1-.32-1.5Z"/><path class="b" d="M81.46,77.65c0,.5-.06,1-.11,1.51h1.46c0-.5.07-1,.1-1.51Z"/><path class="b" d="M83.49,64.54c.93-.08,1.87-.11,2.8-.14s1.87,0,2.8-.05c1.87,0,3.74,0,5.6.19-1.86.15-3.73.18-5.6.19-.93,0-1.87,0-2.8,0S84.42,64.62,83.49,64.54Z"/><polygon class="b" points="76.68 49.32 80.67 49.13 80.67 49.5 76.68 49.32"/><path class="b" d="M112.53,98.86c.18.36.35.72.53,1.07h2.07c-.18-.35-.35-.71-.53-1.07Z"/><path class="b" d="M113.78,101.4l.49,1h2.08l-.5-1Z"/><path class="b" d="M115,103.86c.16.31.32.62.47.93h2.09l-.48-.93Z"/><path class="b" d="M116.25,106.26l.48.89h2.11l-.49-.89Z"/><path class="b" d="M109.89,93.48l.63,1.28h2.07c-.2-.42-.42-.85-.63-1.28Z"/><path class="b" d="M106.88,87.54c.27.53.55,1.06.81,1.58h2.09L109,87.54Z"/><path class="b" d="M108.44,90.59l.72,1.42h2.07l-.71-1.42Z"/><path class="b" d="M122.34,115.69c.29.33.58.64.88.94h2.58c-.34-.29-.68-.61-1-.94Z"/><path class="b" d="M129,118.48a14.53,14.53,0,0,1-2.06-.76h-2.07a4.34,4.34,0,0,0,2.25.76Z"/><path class="b" d="M111.81,97.39h2.07l0-.1c-.17-.35-.34-.71-.52-1.06h-2.07C111.44,96.62,111.63,97,111.81,97.39Z"/><path class="b" d="M105.17,84.31l.94,1.76h2.09l-.93-1.76Z"/><path class="b" d="M118.92,111c.18.3.37.59.56.87h2.2c-.2-.28-.39-.57-.58-.87Z"/><path class="b" d="M117.54,108.62c.16.3.33.59.5.88h2.14l-.51-.88Z"/><path class="b" d="M120.47,113.32l.67.9h2.31c-.24-.29-.48-.59-.71-.9Z"/><path class="b" d="M94.28,66.62l1.34,1.93h2.19c-.43-.64-.87-1.29-1.32-1.93Z"/><path class="b" d="M77.26,46.4c.36.35.72.71,1.06,1.06h2.43c-.34-.35-.68-.71-1-1.06Z"/><path class="b" d="M74.79,44l1,1h2.47l-1-1Z"/><path class="b" d="M79.74,48.94q.57.59,1.11,1.17h2.4l-1.09-1.17Z"/><path class="b" d="M67.37,37.26l.77.67h2.62L70,37.26Z"/><path class="b" d="M82.21,51.58c.4.43.78.86,1.16,1.29h2.36c-.37-.43-.76-.86-1.15-1.29Z"/><path class="b" d="M72.31,41.64l.92.86h2.52c-.3-.29-.6-.58-.91-.86Z"/><path class="b" d="M69.83,39.41l.86.76h2.57l-.85-.76Z"/><path class="b" d="M91.92,63.36c.45.59.88,1.19,1.31,1.79h2.22c-.42-.6-.85-1.2-1.29-1.79Z"/><path class="b" d="M98.91,73.56l1.37,2.21h2.14c-.44-.73-.9-1.47-1.36-2.21Z"/><path class="b" d="M101.16,77.24c.44.73.86,1.46,1.28,2.18h2.12c-.41-.72-.84-1.45-1.27-2.18Z"/><path class="b" d="M96.61,70c.46.69.91,1.38,1.36,2.07h2.16c-.43-.69-.88-1.38-1.34-2.07Z"/><path class="b" d="M87.11,57.22l1.24,1.53h2.3l-1.24-1.53Z"/><path class="b" d="M103.28,80.89c.37.65.73,1.3,1.09,2h2.1c-.35-.64-.71-1.3-1.08-2Z"/><path class="b" d="M84.67,54.34l1.21,1.41h2.31L87,54.34Z"/><path class="b" d="M89.52,60.22l1.29,1.66h2.25L91.8,60.22Z"/><path class="b" d="M133.09,98.86c.21.36.43.71.65,1.07h2.14l-.65-1.07Z"/><path class="b" d="M130,93.48l.72,1.28h2.12l-.73-1.28Z"/><path class="b" d="M131.54,96.23l.68,1.16h2.13c-.23-.39-.46-.77-.68-1.16Z"/><path class="b" d="M126.76,87.54l.84,1.58h2.1l-.85-1.58Z"/><path class="b" d="M125.06,84.31l.92,1.76h2.09l-.92-1.76Z"/><path class="b" d="M128.39,90.59l.78,1.42h2.1l-.78-1.42Z"/><path class="b" d="M121.35,77.24l1.15,2.18h2.09l-1.15-2.18Z"/><path class="b" d="M141.8,111.84h1.84l.3-.14c-.19-.24-.37-.49-.55-.73h-2.24Z"/><path class="b" d="M139.44,108.62l.63.88h2.22l-.63-.88Z"/><path class="b" d="M124.14,82.55l.15.29h2.09c-.15-.29-.3-.58-.46-.87l-.56-1.08h-2.09Z"/><path class="b" d="M136.21,103.86l.6.93H139l-.62-.93Z"/><path class="b" d="M137.8,106.26l.62.89h2.2c-.21-.3-.42-.59-.62-.89Z"/><path class="b" d="M134.64,101.4c.21.33.42.66.62,1h2.16l-.62-1Z"/><path class="b" d="M108.71,57.22l1.21,1.53h2.26q-.57-.77-1.17-1.53Z"/><path class="b" d="M99.77,44.93H97.23c-.4-.33-.79-.65-1.19-1h2.48C98.94,44.29,99.36,44.6,99.77,44.93Z"/><path class="b" d="M102.32,47.46H100c-.34-.35-.7-.71-1.08-1.06h2.2Z"/><path class="b" d="M96.52,42.5H94.08c-.41-.3-.82-.59-1.22-.86h2.42C95.7,41.92,96.12,42.21,96.52,42.5Z"/><path class="b" d="M104.67,50.11h-2.51c-.27-.39-.56-.78-.88-1.17h2.17Z"/><path class="b" d="M94,40.17H90.86L90.43,40h0l-1-.63h2.86Z"/><path class="b" d="M90.75,38.32H87.91l-1.52-.67h2.49Z"/><path class="b" d="M106.27,54.34l1.22,1.41h2.33c-.38-.47-.78-.94-1.18-1.41Z"/><path class="b" d="M115.32,66.62c.4.64.78,1.28,1.17,1.93h2.13c-.38-.65-.76-1.29-1.15-1.93Z"/><path class="b" d="M117.35,70c.4.68.79,1.37,1.18,2.07h2.12Q120.07,71,119.48,70Z"/><path class="b" d="M103.66,51.58c.43.43.85.86,1.25,1.29h2.42l-1.21-1.29Z"/><path class="b" d="M113.21,63.36c.4.59.8,1.19,1.18,1.79h2.16c-.37-.6-.76-1.2-1.15-1.79Z"/><path class="b" d="M119.35,73.56c.41.73.81,1.47,1.21,2.21h2.1l-1.2-2.21Z"/><path class="b" d="M111,60.22l1.19,1.66h2.2c-.38-.55-.76-1.11-1.15-1.66Z"/><path class="b" d="M86,106c-.43.37-.87.73-1.31,1.08l2,0c.42-.34.82-.7,1.23-1.08Z"/><path class="b" d="M88.39,103.77c-.37.39-.75.77-1.13,1.13l1.81,0c.36-.37.72-.75,1.07-1.14Z"/><path class="b" d="M92.15,99.09c-.29.42-.59.84-.89,1.24l1.65,0c.29-.4.58-.82.86-1.24Z"/><path class="b" d="M90.4,101.46c-.32.4-.65.8-1,1.19l1.7,0,1-1.19Z"/><path class="b" d="M82.06,110.37c-.61.34-1.45.66-2.08.95H77.91a9.68,9.68,0,0,0,2.29-1Z"/><path class="b" d="M85.3,108.25q-.72.54-1.44,1l-1.73,0c.49-.35.91-.69,1.33-1Z"/><path class="b" d="M98.68,84c-.12.49-.24,1-.37,1.47l1.47,0c.12-.48.25-1,.36-1.46Z"/><path class="b" d="M98,86.62q-.21.72-.45,1.44l1.49,0c.15-.47.29-1,.43-1.43Z"/><path class="b" d="M93.68,96.68c-.26.44-.52.86-.79,1.29l1.59,0c.26-.43.52-.86.76-1.29Z"/><path class="b" d="M95,94.22c-.22.45-.45.9-.69,1.33l1.55,0c.23-.44.46-.88.68-1.33Z"/><path class="b" d="M96.16,91.72c-.19.47-.39.92-.61,1.37l1.53,0c.21-.45.4-.91.59-1.37Z"/><path class="b" d="M97.16,89.19c-.17.47-.34.94-.53,1.4l1.5,0c.18-.47.35-.93.52-1.4Z"/><path class="b" d="M53.44,110.34c-6.57,0-12.88-3.52-17.76-9.91-5.22-6.83-8.1-16-8.1-25.71S30.46,55.83,35.68,49c4.88-6.4,11.19-9.92,17.76-9.92S66.32,42.61,71.21,49C76.42,55.83,79.3,65,79.3,74.72s-2.88,18.88-8.09,25.71C66.32,106.82,60,110.34,53.44,110.34Zm0-70.63c-6.28,0-12.35,3.42-17.09,9.62-5.15,6.73-8,15.74-8,25.39s2.83,18.66,8,25.39c4.74,6.2,10.81,9.61,17.09,9.61s12.35-3.41,17.09-9.61c5.15-6.73,8-15.75,8-25.39s-2.83-18.66-8-25.39C65.79,43.13,59.72,39.71,53.44,39.71Z"/><path class="b" d="M53.44,107.29c-5.16,0-10.3-3-14.46-8.43-4.86-6.36-7.53-14.93-7.53-24.14S34.12,56.94,39,50.58c4.16-5.44,9.3-8.44,14.46-8.44s10.3,3,14.46,8.44c4.86,6.36,7.53,14.93,7.53,24.14S72.76,92.5,67.9,98.86C63.74,104.3,58.6,107.29,53.44,107.29Zm0-64.53c-4.88,0-9.77,2.89-13.79,8.14-4.78,6.26-7.42,14.72-7.42,23.82s2.64,17.55,7.43,23.81c4,5.25,8.9,8.14,13.78,8.14s9.77-2.89,13.79-8.14c4.78-6.26,7.42-14.72,7.42-23.81S72,57.16,67.23,50.9C63.21,45.65,58.32,42.76,53.44,42.76Z"/><path class="b" d="M53.44,104.25c-3.7,0-7.77-2.54-11.15-7-4.5-5.89-7-13.9-7-22.56s2.48-16.68,7-22.57c3.38-4.43,7.45-7,11.15-7s7.77,2.53,11.15,7c4.5,5.89,7,13.9,7,22.57s-2.48,16.67-7,22.56C61.21,101.71,57.14,104.25,53.44,104.25Zm0-58.44C50,45.81,46.2,48.24,43,52.47c-4.43,5.8-6.87,13.7-6.87,22.25S38.53,91.17,43,97c3.24,4.24,7.06,6.67,10.48,6.67S60.68,101.2,63.92,97c4.43-5.79,6.87-13.69,6.87-22.24s-2.44-16.45-6.87-22.25C60.68,48.24,56.86,45.81,53.44,45.81Z"/><path class="b" d="M53.44,101.2c-1.76,0-4.75-1.44-7.84-5.49-4.15-5.42-6.43-12.88-6.43-21s2.28-15.57,6.43-21c3.09-4,6.08-5.49,7.84-5.49s4.75,1.44,7.85,5.49c4.14,5.43,6.42,12.88,6.42,21s-2.28,15.57-6.42,21C58.19,99.76,55.2,101.2,53.44,101.2Zm0-52.35c-1.19,0-4,1.1-7.17,5.19C42.2,59.37,40,66.71,40,74.72s2.25,15.34,6.32,20.67c3.13,4.1,6,5.19,7.17,5.19s4-1.09,7.17-5.19c4.07-5.33,6.32-12.67,6.32-20.67S64.68,59.37,60.61,54C57.48,50,54.63,48.85,53.44,48.85Z"/><path class="b" d="M84.7,81.35c1-.08,2-.11,3.08-.14s2.06,0,3.08,0c2.06,0,4.12,0,6.17.19-2,.14-4.11.18-6.17.18-1,0-2,0-3.08,0S85.72,81.42,84.7,81.35Z"/><path class="a" d="M61.6,2.41C30.7,0,5.37,34.63,5.37,74.37s25.33,74.44,56.23,72c30-2.42,52.88-32.22,52.88-72S92.28,4.82,61.6,2.41ZM87.41,27.88c9,0,16.39,9.91,16.39,22.13S96.46,72.15,87.41,72.15,71,62.24,71,50,78.35,27.88,87.41,27.88Zm-60.58,4.8c7,0,12.73,8.88,12.73,19.83s-5.7,19.83-12.73,19.83S14.09,63.46,14.09,52.51,19.8,32.68,26.83,32.68Zm0,83.38c-7,0-12.74-8.88-12.74-19.83S19.8,76.4,26.83,76.4s12.73,8.88,12.73,19.83S33.86,116.06,26.83,116.06Zm27.53,23.66c-8.17,0-14.8-9.22-14.8-20.6s6.63-20.59,14.8-20.59,14.8,9.22,14.8,20.59S62.54,139.72,54.36,139.72Zm0-89.52c-8.17,0-14.8-9.22-14.8-20.59S46.19,9,54.36,9s14.8,9.22,14.8,20.59S62.54,50.2,54.36,50.2Zm33.05,70.66C78.35,120.86,71,111,71,98.72s7.34-22.13,16.4-22.13S103.8,86.5,103.8,98.72,96.46,120.86,87.41,120.86Z"/><path class="b" d="M58.89,2.41c-31.06,0-56.23,32.22-56.23,72s25.17,72,56.23,72,56.23-32.22,56.23-72S90,2.41,58.89,2.41ZM84.7,27.88c9,0,16.39,9.91,16.39,22.13S93.75,72.15,84.7,72.15,68.3,62.24,68.3,50,75.64,27.88,84.7,27.88Zm-60.58,4.8c7,0,12.73,8.88,12.73,19.83s-5.7,19.83-12.73,19.83S11.38,63.46,11.38,52.51,17.08,32.68,24.12,32.68Zm0,83.38c-7,0-12.74-8.88-12.74-19.83S17.08,76.4,24.12,76.4s12.73,8.88,12.73,19.83S31.15,116.06,24.12,116.06Zm27.53,23.66c-8.17,0-14.8-9.22-14.8-20.6s6.63-20.59,14.8-20.59,14.8,9.22,14.8,20.59S59.83,139.72,51.65,139.72Zm0-89.52c-8.17,0-14.8-9.22-14.8-20.59S43.48,9,51.65,9s14.8,9.22,14.8,20.59S59.83,50.2,51.65,50.2ZM84.7,120.86c-9.06,0-16.4-9.91-16.4-22.14s7.34-22.13,16.4-22.13,16.39,9.91,16.39,22.13S93.75,120.86,84.7,120.86Z"/><path class="a" d="M58.89,147.26c-15.44,0-29.92-7.65-40.77-21.52S1.48,93.76,1.48,74.37,7.39,36.73,18.12,23C29,9.12,43.45,1.48,58.89,1.48S88.81,9.12,99.66,23c10.73,13.73,16.64,32,16.64,51.37S110.39,112,99.66,125.74,74.34,147.26,58.89,147.26Zm0-143.92c-30.36,0-55,31.86-55,71s24.69,71,55.05,71,55.05-31.87,55.05-71S89.25,3.34,58.89,3.34ZM51.65,140.65c-9,0-16-9.46-16-21.53s7-21.52,16-21.52,16,9.46,16,21.52S60.61,140.65,51.65,140.65Zm0-41.19c-7.51,0-13.62,8.82-13.62,19.66s6.11,19.67,13.62,19.67S65.27,130,65.27,119.12,59.16,99.46,51.65,99.46ZM84.7,121.79c-9.69,0-17.58-10.35-17.58-23.07S75,75.66,84.7,75.66,102.27,86,102.27,98.72,94.38,121.79,84.7,121.79Zm0-44.27c-8.39,0-15.22,9.51-15.22,21.2s6.83,21.21,15.22,21.21,15.21-9.51,15.21-21.21S93.08,77.52,84.7,77.52ZM24.12,117c-7.8,0-13.92-9.12-13.92-20.76s6.12-20.76,13.92-20.76S38,84.59,38,96.23,31.92,117,24.12,117Zm0-39.66c-6.27,0-11.56,8.65-11.56,18.9s5.29,18.9,11.56,18.9,11.55-8.66,11.55-18.9S30.38,77.33,24.12,77.33Zm0-4.06c-7.8,0-13.92-9.12-13.92-20.76s6.12-20.76,13.92-20.76S38,40.87,38,52.51,31.92,73.27,24.12,73.27Zm0-39.66c-6.27,0-11.56,8.65-11.56,18.9s5.29,18.9,11.56,18.9,11.55-8.66,11.55-18.9S30.38,33.61,24.12,33.61ZM84.7,73.08C75,73.08,67.12,62.73,67.12,50S75,27,84.7,27,102.27,37.29,102.27,50,94.38,73.08,84.7,73.08Zm0-44.27c-8.39,0-15.22,9.51-15.22,21.2S76.31,71.22,84.7,71.22,99.91,61.7,99.91,50,93.08,28.81,84.7,28.81ZM51.65,51.13c-9,0-16-9.45-16-21.52s7-21.52,16-21.52,16,9.45,16,21.52S60.61,51.13,51.65,51.13Zm0-41.18C44.14,10,38,18.77,38,29.61s6.11,19.66,13.62,19.66,13.62-8.82,13.62-19.66S59.16,10,51.65,10Z"/><path class="a" d="M31.91,9.92A49.29,49.29,0,0,1,49.26,4.05,45.36,45.36,0,0,1,68.05,5.32a46.82,46.82,0,0,1,15.6,8.15A45.47,45.47,0,0,1,94.5,25.3c-1-.94-1.91-1.92-2.87-2.85s-1.9-1.9-2.91-2.8a64.45,64.45,0,0,0-6.21-5.25A45.85,45.85,0,0,0,67.3,7a42.26,42.26,0,0,0-8.71-1.35,43.52,43.52,0,0,0-8.84.47A49.28,49.28,0,0,0,41.28,8a51.15,51.15,0,0,0-8,3.44Z"/><path class="a" d="M33.57,137.19a47.74,47.74,0,0,0,7.71,3.5,49.75,49.75,0,0,0,8.47,2.12,45,45,0,0,0,8.84.47,41.61,41.61,0,0,0,8.71-1.36,45.85,45.85,0,0,0,15.21-7.41,64.36,64.36,0,0,0,6.21-5.24c1-.9,1.93-1.87,2.91-2.8s1.86-1.92,2.87-2.85a45.63,45.63,0,0,1-10.85,11.83,47,47,0,0,1-15.6,8.14,45.36,45.36,0,0,1-18.79,1.28A49.1,49.1,0,0,1,31.91,139Z"/><ellipse class="a" cx="51.65" cy="59.33" rx="3.5" ry="4.92"/><path class="a" d="M51.65,64.68c-2.28,0-4.06-2.35-4.06-5.35S49.37,54,51.65,54s4.06,2.35,4.06,5.36S53.93,64.68,51.65,64.68Zm0-9.83c-1.6,0-2.95,2-2.95,4.48s1.35,4.48,2.95,4.48,3-2.06,3-4.48S53.25,54.85,51.65,54.85Z"/><path class="b" d="M52.47,63.31a2.31,2.31,0,0,1-1.56-.39,3.55,3.55,0,0,1-1-1.05,4.86,4.86,0,0,1,0-5.09,3.67,3.67,0,0,1,1-1.05,2.36,2.36,0,0,1,1.56-.39,2.15,2.15,0,0,0-1.23.65,3.2,3.2,0,0,0-.68,1,6.06,6.06,0,0,0,0,4.63,3.24,3.24,0,0,0,.68,1A2.14,2.14,0,0,0,52.47,63.31Z"/><path class="a" d="M55.15,89.6c0,2.72-1.56,4.92-3.5,4.92s-3.5-2.2-3.5-4.92,1.57-4.91,3.5-4.91S55.15,86.89,55.15,89.6Z"/><path class="a" d="M51.65,95c-2.28,0-4.06-2.35-4.06-5.36s1.78-5.35,4.06-5.35,4.06,2.35,4.06,5.35S53.93,95,51.65,95Zm0-9.83c-1.6,0-2.95,2.05-2.95,4.47s1.35,4.48,2.95,4.48,3-2,3-4.48S53.25,85.13,51.65,85.13Z"/><path class="b" d="M52.47,93.59a2.36,2.36,0,0,1-1.56-.39,3.67,3.67,0,0,1-1-1,4.86,4.86,0,0,1,0-5.09,3.55,3.55,0,0,1,1-1,2.31,2.31,0,0,1,1.56-.39,2.2,2.2,0,0,0-1.23.64,3.24,3.24,0,0,0-.68,1,6.06,6.06,0,0,0,0,4.63,3.35,3.35,0,0,0,.68,1A2.2,2.2,0,0,0,52.47,93.59Z"/><path class="a" d="M51.65,83.33c-3.82,0-6.81-3.94-6.81-9s3-9,6.81-9,6.82,3.93,6.82,9S55.47,83.33,51.65,83.33Zm0-16.37C49,67,46.8,70.35,46.8,74.37s2.22,7.41,4.85,7.41,4.85-3.39,4.85-7.41S54.28,67,51.65,67Z"/><path class="a" d="M53.44,82.55a4.82,4.82,0,0,1-3.27-.73A7.55,7.55,0,0,1,48,79.65a9.79,9.79,0,0,1,0-10.57,7.17,7.17,0,0,1,2.19-2.16,4.82,4.82,0,0,1,3.27-.74A4.5,4.5,0,0,0,51,67.56a7.46,7.46,0,0,0-1.32,2.11,12.46,12.46,0,0,0-.89,4.7,12.3,12.3,0,0,0,.89,4.7A7.24,7.24,0,0,0,51,81.18,4.42,4.42,0,0,0,53.44,82.55Z"/><path class="a" d="M66.36,66.18c0,2.69-1.55,4.87-3.47,4.87s-3.47-2.18-3.47-4.87,1.56-4.87,3.47-4.87S66.36,63.49,66.36,66.18Z"/><path class="a" d="M62.89,71.49c-2.26,0-4-2.33-4-5.31s1.76-5.31,4-5.31,4,2.34,4,5.31S65.15,71.49,62.89,71.49Zm0-9.74c-1.58,0-2.91,2-2.91,4.43s1.33,4.43,2.91,4.43,2.92-2,2.92-4.43S64.47,61.75,62.89,61.75Z"/><path class="b" d="M64,70.13a2.34,2.34,0,0,1-1.54-.39,3.48,3.48,0,0,1-1-1,4.77,4.77,0,0,1,0-5,3.6,3.6,0,0,1,1-1A2.27,2.27,0,0,1,64,62.24a2.12,2.12,0,0,0-1.21.64,3.3,3.3,0,0,0-.67,1,5.52,5.52,0,0,0-.46,2.29,5.67,5.67,0,0,0,.45,2.29,3.57,3.57,0,0,0,.68,1A2.18,2.18,0,0,0,64,70.13Z"/><path class="a" d="M66.36,81.93c0,2.69-1.55,4.87-3.47,4.87s-3.47-2.18-3.47-4.87,1.56-4.87,3.47-4.87S66.36,79.24,66.36,81.93Z"/><path class="a" d="M62.89,87.24c-2.26,0-4-2.33-4-5.31s1.76-5.31,4-5.31,4,2.34,4,5.31S65.15,87.24,62.89,87.24Zm0-9.74c-1.58,0-2.91,2-2.91,4.43s1.33,4.43,2.91,4.43,2.92-2,2.92-4.43S64.47,77.5,62.89,77.5Z"/><path class="b" d="M64,85.88a2.34,2.34,0,0,1-1.54-.39,3.48,3.48,0,0,1-1-1,4.77,4.77,0,0,1,0-5,3.6,3.6,0,0,1,1-1A2.27,2.27,0,0,1,64,78a2.12,2.12,0,0,0-1.21.64,3.3,3.3,0,0,0-.67,1,5.52,5.52,0,0,0-.46,2.29,5.67,5.67,0,0,0,.45,2.29,3.57,3.57,0,0,0,.68,1A2.18,2.18,0,0,0,64,85.88Z"/><path class="a" d="M43.36,67.67c0,2.42-1.4,4.38-3.12,4.38s-3.12-2-3.12-4.38,1.4-4.39,3.12-4.39S43.36,65.25,43.36,67.67Z"/><path class="a" d="M40.24,72.49c-2.06,0-3.68-2.12-3.68-4.82s1.62-4.82,3.68-4.82,3.68,2.11,3.68,4.82S42.3,72.49,40.24,72.49Zm0-8.77c-1.39,0-2.56,1.81-2.56,4s1.17,3.94,2.56,3.94,2.57-1.81,2.57-3.94S41.63,63.72,40.24,63.72Z"/><path class="b" d="M41.29,71.27a2.09,2.09,0,0,1-1.4-.33A3.2,3.2,0,0,1,39,70a4.17,4.17,0,0,1-.67-2.28A4.24,4.24,0,0,1,39,65.44a3.24,3.24,0,0,1,.94-.94,2.09,2.09,0,0,1,1.4-.33,2.31,2.31,0,0,0-1.66,1.5,5.35,5.35,0,0,0-.4,2,5.17,5.17,0,0,0,.4,2A2.31,2.31,0,0,0,41.29,71.27Z"/><ellipse class="a" cx="40.24" cy="80.97" rx="3.12" ry="4.38"/><path class="a" d="M40.24,85.79c-2.06,0-3.68-2.12-3.68-4.82s1.62-4.82,3.68-4.82,3.68,2.11,3.68,4.82S42.3,85.79,40.24,85.79Zm0-8.77c-1.39,0-2.56,1.81-2.56,4s1.17,3.94,2.56,3.94S42.81,83.1,42.81,81,41.63,77,40.24,77Z"/><path class="b" d="M41.29,84.57a2.09,2.09,0,0,1-1.4-.33A3.2,3.2,0,0,1,39,83.3,4.17,4.17,0,0,1,38.29,81,4.24,4.24,0,0,1,39,78.74a3.24,3.24,0,0,1,.94-.94,2.09,2.09,0,0,1,1.4-.33A2.31,2.31,0,0,0,39.63,79a5.38,5.38,0,0,0-.4,2,5.17,5.17,0,0,0,.4,2A2.31,2.31,0,0,0,41.29,84.57Z"/><path class="b" d="M80,96.23c1-.08,2-.11,3.08-.14s2,0,3.07,0c2.05,0,4.1,0,6.15.19-2,.15-4.1.18-6.15.18-1,0-2,0-3.07,0S81,96.3,80,96.23Z"/><path class="b" d="M105.51,76.68c1.2-.08,2.4-.12,3.6-.15s2.41,0,3.61,0,2.4,0,3.6,0,2.4.07,3.6.15c-1.2.09-2.4.12-3.6.16s-2.4,0-3.6,0-2.4,0-3.61,0S106.71,76.77,105.51,76.68Z"/><path class="b" d="M92,57.6c1.4-.08,2.8-.12,4.21-.15s2.8,0,4.2-.05,2.81,0,4.21.05,2.8.07,4.21.15c-1.41.09-2.81.12-4.21.16s-2.8,0-4.21,0-2.8,0-4.2,0S93.35,57.68,92,57.6Z"/><path class="b" d="M78.26,42.5c1.2-.09,2.4-.12,3.6-.16s2.4,0,3.6,0,2.41,0,3.61,0,2.4.07,3.6.16c-1.2.08-2.4.12-3.6.15s-2.4,0-3.61.05-2.4,0-3.6-.05S79.46,42.58,78.26,42.5Z"/><path class="b" d="M115,96.23c1.28-.08,2.56-.12,3.84-.16s2.57,0,3.85,0,2.56,0,3.84,0,2.57.07,3.85.16c-1.28.08-2.56.12-3.85.15s-2.56,0-3.84.05-2.56,0-3.85-.05S116.29,96.31,115,96.23Z"/><path class="b" d="M126.27,114.53c1.16-.08,2.32-.11,3.48-.14s2.31,0,3.47,0,2.31,0,3.47,0,2.32.06,3.47.14c-1.15.08-2.31.11-3.47.14s-2.31,0-3.47,0-2.32,0-3.47,0S127.43,114.61,126.27,114.53Z"/><path class="b" d="M70.76,108.32c.92-.08,1.83-.12,2.74-.15s1.82,0,2.73,0c1.83,0,3.65,0,5.48.19-1.83.14-3.65.18-5.48.18-.91,0-1.82,0-2.73,0S71.68,108.39,70.76,108.32Z"/></svg>